<?xml version="1.0" ?><!DOCTYPE svg  PUBLIC '-//W3C//DTD SVG 1.1//EN'  'http://www.w3.org/Graphics/SVG/1.1/DTD/svg11.dtd'><svg enable-background="new 0 0 512 512" height="512px" id="Layer_1" version="1.1" fill="#fff" viewBox="0 0 512 512" width="512px" xml:space="preserve" xmlns="http://www.w3.org/2000/svg" xmlns:xlink="http://www.w3.org/1999/xlink"><g><g><path d="M32,224c-17.672,0-32,14.312-32,32c0,17.688,14.328,32,32,32s32-14.312,32-32C64,238.312,49.672,224,32,224z M96,128    c17.672,0,32-14.312,32-32s-14.328-32-32-32S64,78.312,64,96S78.328,128,96,128z M256,64c17.672,0,32-14.312,32-32    c0-17.656-14.328-32-32-32s-32,14.344-32,32C224,49.688,238.328,64,256,64z M96,384c-17.672,0-32,14.312-32,32s14.328,32,32,32    s32-14.312,32-32S113.672,384,96,384z M416,384c-17.673,0-32,14.312-32,32s14.327,32,32,32c17.672,0,32-14.312,32-32    S433.672,384,416,384z M256,128c-70.688,0-128,57.312-128,128c0,70.688,57.312,128,128,128c70.688,0,128-57.312,128-128    C384,185.312,326.688,128,256,128z M256,320c-35.345,0-64-28.656-64-64s28.655-64,64-64c35.344,0,64,28.656,64,64    S291.344,320,256,320z M480,224c-17.673,0-32,14.312-32,32c0,17.688,14.327,32,32,32c17.672,0,32-14.312,32-32    C512,238.312,497.672,224,480,224z M256,448c-17.672,0-32,14.344-32,32c0,17.688,14.328,32,32,32s32-14.312,32-32    C288,462.344,273.672,448,256,448z M416,128c17.672,0,32-14.312,32-32s-14.328-32-32-32c-17.673,0-32,14.312-32,32    S398.327,128,416,128z"/></g></g></svg>